<svg width="189" height="184" viewBox="0 0 189 184" fill="none" xmlns="http://www.w3.org/2000/svg">
<path d="M98.2068 0.938732C103.832 1.08273 109.45 1.3654 115.04 2.01207C117.608 2.30674 120.035 3.24139 122.456 4.09339C127.3 5.79872 132.3 7.15605 136.716 9.88538C139.556 11.6414 142.438 13.3521 144.882 15.6921C146.175 16.9294 147.686 17.9241 149.075 19.0614C151.494 21.0387 153.561 23.3427 155.659 25.6281C156.879 26.9574 158.24 28.1334 159.663 29.2254C163.38 32.0747 166.079 35.8147 168.759 39.5614C170.228 41.6134 171.53 43.7734 172.403 46.1734C172.546 46.5601 172.851 46.9334 173.151 47.2267C177.359 51.5201 180.208 56.7201 183.007 61.9334C184.106 63.9867 184.528 66.3201 184.991 68.6134C185.933 73.2667 186.972 77.9067 187.775 82.5867C188.643 87.6534 188.079 92.6667 186.51 97.5334C185.498 100.68 184.329 103.773 183.192 106.867C182.751 108.067 182.563 109.293 182.434 110.56C182.067 114.133 180.891 117.453 179.192 120.613C177.429 123.867 176.075 127.28 175.161 130.88C174.065 135.2 171.523 138.787 169.277 142.533C165.996 148 162.571 153.4 157.595 157.493C153.144 161.147 148.526 164.587 143.474 167.467C137.69 170.76 131.894 174.013 125.691 176.427C121.23 178.16 116.7 179.813 111.838 180.133C107.102 180.453 102.667 182.133 98.1015 183.214C94.7655 184.013 91.4255 184.267 88.0175 183.493C86.2308 183.093 84.3842 182.96 82.5695 182.627C75.5015 181.32 69.0255 178.307 62.3575 175.84C61.3108 175.453 60.2988 174.96 59.2348 174.64C57.8602 174.214 56.6628 173.547 55.5895 172.587C54.2775 171.427 52.7895 170.52 51.2215 169.72C47.0255 167.6 42.8495 165.427 38.6775 163.24C38.0802 162.933 37.5348 162.52 36.9855 162.12C29.9846 157.067 24.8116 150.453 20.2632 143.173C16.7362 137.533 13.4471 131.773 10.1736 125.987C8.70232 123.387 7.93405 120.52 6.86218 117.76C4.99858 112.973 3.76324 107.973 2.49751 103.013C1.12098 97.6134 0.459516 92.2134 1.33512 86.4934C2.49338 78.92 4.48458 71.7067 7.73084 64.8134C8.45324 63.2801 9.36057 61.8401 10.2215 60.3734C11.9064 57.5201 12.9362 54.3867 13.9491 51.2534C14.7695 48.7201 16.1346 46.4534 17.895 44.5201C21.1772 40.9067 23.9934 36.9801 26.6226 32.8947C27.8475 30.9894 29.5252 29.5281 31.3255 28.1761C34.5055 25.7907 37.7455 23.4947 40.4615 20.5227C42.0962 18.7334 44.3975 17.7081 46.4028 16.3481C48.9722 14.6041 51.6108 12.9627 54.2348 11.3001C58.0948 8.85206 62.4375 7.59872 66.7722 6.36272C70.0815 5.41872 73.4002 4.4174 76.7828 3.84007C81.3175 3.06673 85.8335 2.17073 90.3788 1.46539C92.9695 1.06273 95.5735 0.758732 98.2068 0.938732Z" fill="#FFD561"/>
<path d="M111.144 140.36C111.183 143.094 111.183 143.094 108.346 143.08C105.612 143.054 105.579 143.054 105.399 140.307C105.292 138.667 105.098 137.04 104.84 135.4C104.382 132.507 102.958 130.12 101.194 127.907C99.3565 125.6 96.8431 124.92 94.0151 125.374C90.4418 125.947 87.0685 127.094 84.0178 129.094C79.8085 131.84 76.8205 135.64 74.6645 140.134C74.4338 140.614 74.1525 140.8 73.6831 140.8C72.4711 140.814 71.2565 140.827 70.0431 140.8C68.9591 140.787 68.6858 140.254 69.1338 139.28C69.8685 137.667 71.0058 136.334 72.0018 134.907C75.6405 129.68 80.6578 126.52 86.7511 124.987C91.8285 123.72 96.9725 123.147 102.115 124.547C106.65 125.787 108.662 129.467 110.084 133.494C110.86 135.68 111.074 138.027 111.144 140.36Z" fill="#292929"/>
<path d="M55.5273 114.893C58.39 113.52 61.09 111.906 63.8953 110.506C66.718 109.106 68.378 106.72 69.918 104.2C70.3807 103.44 70.698 103.36 71.3607 103.72C71.53 103.8 71.7127 103.88 71.882 103.973C75.418 105.906 75.4953 106.413 73.194 109.653C71.9567 111.4 70.49 112.786 68.578 113.76C66.286 114.92 63.982 116.08 61.782 117.4C60.3393 118.266 59.1634 118.053 57.9207 117.133C57.0674 116.506 56.1553 115.946 55.5273 114.893Z" fill="#292929"/>
<path d="M135.306 115.6C132.976 118.48 130.077 119.067 127.19 117.387C126.604 117.053 126.033 116.64 125.402 116.413C121.642 115.093 119.086 112.4 116.965 109.16C115.546 107 115.616 106.387 117.846 105.067C118.342 104.773 118.9 104.587 119.417 104.32C120.386 103.84 120.79 104.107 121.334 105.12C123.136 108.493 125.369 111.52 129.169 112.96C131.232 113.747 132.897 115.4 135.306 115.6Z" fill="#292929"/>
</svg>
