<svg width="189" height="188" viewBox="0 0 189 188" fill="none" xmlns="http://www.w3.org/2000/svg">
<path d="M1.37227 100.047C1.37227 94.4347 1.1692 88.812 1.42693 83.2133C1.6968 77.3653 2.26186 71.5147 3.28013 65.744C3.97386 61.8013 5.6936 58.128 7.16813 54.42C11.2655 44.1186 16.704 34.5426 23.4321 25.7039C24.828 23.8693 26.7212 22.5626 28.5025 21.1333C31.6652 18.592 34.8172 16.0373 37.9252 13.432C42.4625 9.62801 47.7945 7.30264 53.1505 4.93598C61.1305 1.41331 69.5039 0.354633 78.1092 0.258633C82.1905 0.214633 86.2652 0.0999974 90.3492 0.257331C95.0279 0.437331 99.6385 1.23733 104.292 1.65199C107.173 1.91066 110.039 2.33728 112.917 2.63728C118.933 3.25995 124.675 4.97595 130.165 7.37862C141.24 12.22 152.284 17.1747 162.659 23.3907C168.455 26.864 174.032 30.9786 177.657 36.7253C180.333 40.9666 182.832 45.376 183.557 50.7773C184.365 56.7933 185.073 62.8693 186.376 68.852C187.697 74.9146 188.408 81.1467 188.119 87.3667C187.875 92.604 187.016 97.8107 186.521 103.04C186.28 105.589 185.525 107.965 184.683 110.36C183.651 113.291 183.577 116.425 183.361 119.481C182.828 127.109 181.028 134.461 178.581 141.64C177.101 145.976 174.307 149.663 171.357 153.173C165.475 160.175 159.291 166.864 151.485 171.828C149.864 172.86 148.121 173.727 146.367 174.521C139.429 177.663 132.485 180.793 125.363 183.505C119.467 185.751 113.26 186.449 107.048 187.149C100.003 187.943 93.0732 186.815 86.1172 186.036C81.2799 185.495 76.4505 184.865 71.6025 184.436C67.4839 184.073 63.5345 183.08 59.6399 181.785C56.5239 180.749 53.2852 180.028 50.4265 178.313C45.0279 175.079 39.4532 172.159 33.9679 169.077C26.4529 164.856 21.5192 158.445 18.1301 150.647C16.1363 146.061 13.7196 141.667 11.1796 137.34C8.9728 133.583 7.56919 129.439 5.89933 125.424C3.99106 120.832 2.54413 116.084 1.5624 111.236C0.820129 107.573 0.903463 103.792 1.00506 100.045C1.12746 100.045 1.24987 100.045 1.37227 100.047Z" fill="#FFD561"/>
<path d="M95.4019 93.6282C91.5459 93.9615 87.6232 93.3322 83.7259 92.3588C80.3899 91.5255 77.6392 89.8082 75.1619 87.4375C71.7192 84.1415 68.8765 80.4735 66.9925 76.0762C65.7699 73.2215 65.2165 70.1815 64.3925 67.2149C64.3099 66.9229 64.2619 66.6228 64.1912 66.3282C63.5272 63.5402 63.5259 63.5415 66.4672 63.5082C69.5325 63.4722 69.5459 63.4709 70.2112 66.4775C71.2299 71.0829 72.2779 75.7415 74.9339 79.6829C81.0139 88.7015 86.1285 92.5162 97.3792 92.3188C103.394 92.2148 106.727 88.7189 109.811 84.4402C112.514 80.6949 113.914 76.3549 115.415 72.0629C115.831 70.8695 116.266 69.6828 116.695 68.4935C116.746 68.3522 116.885 68.1882 116.851 68.0749C116.118 65.6829 117.951 66.2042 119.098 66.1908C122.681 66.1415 123.806 65.8042 122.155 69.9922C120.158 75.0615 118.871 80.4402 115.579 84.9188C112.739 88.7842 109.706 92.5055 104.505 93.1829C101.549 93.5682 98.5685 93.7949 95.4019 93.6282Z" fill="#292929"/>
<path d="M127.306 50.6799C127.231 49.4199 127.295 48.1519 127.295 46.8879C127.278 46.8879 127.261 46.8879 127.245 46.8879C127.245 45.2186 127.235 43.5492 127.25 41.8812C127.253 41.3386 127.174 40.7186 126.623 40.6346C124.942 40.3772 123.614 39.1386 121.954 38.9546C117.409 38.4493 112.891 38.5359 108.499 40.0439C107.249 40.4719 106.514 41.3186 106.709 42.6706C107.167 45.8546 107.305 49.1026 108.805 52.0746C109.997 54.4333 111.871 55.8879 114.417 56.1639C117.223 56.4706 120.113 56.5279 122.862 55.8346C125.513 55.1652 127.51 54.0239 127.306 50.6799Z" fill="white"/>
<path d="M78.9281 41.9719C77.3015 39.4039 74.9095 37.8452 71.8241 37.2932C68.7815 36.7492 65.9215 37.8199 62.9681 38.0159C62.6441 38.0372 62.1775 38.2278 62.0495 38.4785C61.1268 40.2958 59.7881 41.9372 59.5881 44.0719C59.3415 46.7172 60.0308 49.2998 60.1255 51.9225C60.1495 52.6172 60.5615 53.1452 61.0241 53.6332C62.7295 55.4252 65.1081 55.5265 67.2801 55.8772C70.4655 56.3932 73.3681 55.2545 76.2668 53.8838C78.4415 52.8572 79.3321 51.4265 79.2975 49.1825C79.2855 48.3719 79.2961 47.5625 79.2961 46.4012C79.1308 45.1545 79.8201 43.3812 78.9281 41.9719Z" fill="white"/>
<path d="M122.756 44.7947C122.748 43.712 122.128 42.6373 121.133 42.1747C120.038 41.6653 118.712 41.9213 117.554 41.608C116.442 41.3053 114.864 41.8333 113.686 41.9173C112.66 41.9893 112.132 42.424 112.174 43.54C112.289 46.5213 112.36 49.5014 112.412 52.4827C112.422 53.128 112.733 53.4173 113.29 53.4973C114.941 53.7307 116.622 53.9053 118.29 53.7667C119.14 53.6973 119.99 53.5494 120.794 53.2547C121.781 52.892 121.901 52.648 122.21 51.6774C122.928 49.4254 122.773 47.1027 122.756 44.7947Z" fill="#292929"/>
<path d="M74.1737 40.9733C75.0284 41.2773 75.183 42 75.287 42.7774C75.6444 45.472 75.1684 48.2333 76.019 50.9013C76.2644 51.6707 75.4977 52.1973 74.8164 52.4093C72.1497 53.236 69.423 53.7387 66.623 53.3547C65.215 53.1614 64.479 52.1214 64.4217 50.8227C64.3057 48.1987 64.3097 45.5653 64.391 42.94C64.419 41.9947 64.8217 41.068 65.9244 40.7587C66.5097 41.0067 67.1124 40.8507 67.7084 40.8414C69.7964 40.636 71.8764 40.724 73.951 41.0054C74.0257 40.9934 74.099 40.984 74.1737 40.9733Z" fill="#292929"/>
</svg>
