<svg width="188" height="188" viewBox="0 0 188 188" fill="none" xmlns="http://www.w3.org/2000/svg">
<path d="M187.818 86.7093C187.73 94.8467 187.57 102.988 186.89 111.099C186.538 115.291 185.638 119.371 184.137 123.395C181.758 129.768 178.863 135.887 175.503 141.744C172.981 146.137 170.058 150.329 167.394 154.66C165.794 157.26 164.613 160.107 162.814 162.591C157.964 169.296 151.321 173.544 143.73 176.571C140.426 177.888 137.192 179.428 134.064 181.12C129.266 183.716 123.981 184.555 118.789 185.777C113.885 186.932 108.881 186.768 103.904 186.976C97.8435 187.231 91.7889 187.64 85.7275 187.769C80.8942 187.871 76.1155 187.188 71.3488 186.317C63.9528 184.967 57.0435 182.425 50.3982 178.933C45.1182 176.159 39.8048 173.443 34.6235 170.497C27.8075 166.623 22.7395 160.813 17.8288 154.857C14.7462 151.117 11.9662 147.183 9.4315 143.048C6.6475 138.501 5.71818 133.419 4.65018 128.341C2.78485 119.469 3.4675 110.424 1.8675 101.521C-0.581831 87.8813 0.802174 73.9453 4.30617 60.6547C5.29284 56.9133 5.96747 53.1186 6.83547 49.3626C7.73014 45.4879 8.52347 41.5519 10.2021 37.8959C10.4528 37.3506 10.7861 36.8 11.2101 36.384C13.1955 34.44 14.0289 31.7413 15.8942 29.6613C19.0462 26.1466 22.9515 23.68 26.7288 21.016C30.7995 18.144 35.4195 16.324 39.9688 14.384C47.6075 11.1253 55.3569 8.13732 63.1635 5.31066C70.4422 2.67732 77.9555 1.25595 85.7262 1.13995C91.1288 1.05862 96.5262 0.695968 101.926 0.555968C107.535 0.411968 113.097 1.06804 118.665 1.66404C122.362 2.05871 126.048 2.48929 129.681 3.27862C134.87 4.40796 139.478 6.96796 144.238 9.18396C150.657 12.172 155.462 17.1733 160.807 21.5707C170.082 29.1973 175.498 39.1987 180.173 49.8867C182.963 56.2667 184.847 62.896 186.778 69.5373C187.818 73.1147 187.483 76.8093 187.787 80.4466C187.961 82.5213 187.818 84.6213 187.818 86.7093Z" fill="#FFD561"/>
<path d="M91.4728 90.4199C82.2915 89.7306 73.8235 87.5826 65.6915 84.0533C63.6089 83.1506 62.0368 81.5932 60.6715 79.9132C58.0061 76.6372 56.1955 72.9105 55.6609 68.6505C55.4142 66.6879 55.4048 66.6892 57.4675 66.4319C57.7688 66.3932 58.0728 66.3079 58.3728 66.3159C61.2648 66.3866 61.3222 65.8986 61.8062 69.0706C62.6062 74.3239 65.3168 78.6505 69.4488 82.0345C69.9155 82.4158 70.4702 82.7133 71.0249 82.9586C77.9502 86.0146 85.1795 88.0479 92.7048 88.7826C98.9608 89.3932 105.049 88.2306 110.577 85.2826C114.789 83.0372 118.099 79.5785 120.668 75.5012C122.732 72.2225 124.47 68.7812 125.614 65.0652C125.84 64.3319 126.274 63.9613 127.033 63.9253C128.202 63.8706 129.369 63.7958 130.537 63.7292C131.604 63.6678 131.876 64.0932 131.533 65.1212C129.128 72.3679 125.297 78.6159 119.34 83.5586C115.669 86.6053 111.294 87.8239 106.898 89.0253C101.75 90.4333 96.4342 90.3239 91.4728 90.4199Z" fill="#292929"/>
<path d="M24.4379 57.8801C23.4005 47.1588 40.3899 49.7548 43.7552 56.5655C45.5632 60.2242 43.9712 64.9162 40.5005 67.6429C36.2645 70.9722 29.1085 69.2908 26.4859 64.9948C25.1339 62.7788 23.7832 60.5961 24.4379 57.8801Z" fill="#D6674C"/>
<path d="M161.307 65.8292C160.401 69.8852 158.875 73.6359 155.238 76.0639C152.361 77.9839 149.486 76.6266 146.653 75.7319C146.517 75.6892 146.39 75.6105 146.262 75.5439C141.028 72.7905 140.894 71.0185 142.413 65.8105C142.998 63.7999 143.978 62.0052 145.689 60.6426C148.018 58.7852 150.534 57.7012 153.543 58.4612C156.354 59.1719 158.898 60.3105 160.546 62.9292C161.126 63.8505 161.423 64.7278 161.307 65.8292Z" fill="#D6674C"/>
<path d="M121.588 36.0359C126.465 36.2946 129.617 38.808 131.276 43.4494C132.399 46.5854 132.776 49.8694 133.548 53.072C133.839 54.28 133.287 54.7826 132.151 54.868C131.644 54.9053 131.14 55.0174 130.635 55.0267C129.721 55.044 128.711 55.252 127.917 54.9374C126.921 54.5414 127.807 53.4587 127.563 52.6761C126.529 49.3841 126.304 45.8586 124.897 42.68C123.996 40.644 122.397 39.1307 120.455 38.0107C119.572 37.5014 118.977 37.94 118.3 38.512C114.817 41.4467 112.999 45.4187 111.429 49.5201C110.776 51.2254 110.172 52.9506 109.46 54.6346C109.364 54.86 109.251 55.2067 109.084 55.2494C107.352 55.6987 105.587 55.8494 103.821 55.5107C103.356 55.4214 103.257 54.9547 103.491 54.5201C105.063 51.5987 105.747 48.3226 107.263 45.3573C108.68 42.5866 110.445 40.1787 112.727 38.0974C113.508 37.3854 114.377 36.916 115.395 36.7067C117.437 36.2853 119.484 35.8919 121.588 36.0359Z" fill="#292929"/>
<path d="M80.5141 56.0452C78.4915 55.9865 78.4821 55.9865 78.4288 53.9745C78.3315 50.3371 77.8995 46.7799 76.2235 43.4665C75.4235 41.8852 74.1261 40.8372 72.6568 40.0172C71.1955 39.2025 69.8475 39.5919 68.6302 40.7332C65.9008 43.2919 63.8795 46.3039 62.7261 49.8612C61.9288 52.3185 61.2221 54.8066 60.5141 57.2919C60.3741 57.7853 60.0755 57.9639 59.6528 57.9919C58.2848 58.0813 56.9155 58.1745 55.5448 58.1945C54.6128 58.2092 54.2208 57.6692 54.5555 56.7892C55.9075 53.2292 56.5875 49.4332 58.4595 46.0505C59.7128 43.7839 61.3848 41.9052 63.2701 40.1798C64.4448 39.1052 65.8901 38.7066 67.4261 38.4533C70.2555 37.9853 73.0755 37.8172 75.9141 38.3385C79.0768 38.9185 81.2154 40.7759 82.5074 43.6479C84.0848 47.1559 84.3728 50.9052 84.4955 54.6826C84.5221 55.4732 84.1248 55.7719 83.3981 55.8172C82.4341 55.8785 81.4741 55.9679 80.5141 56.0452Z" fill="#292929"/>
</svg>
