<svg width="188" height="188" viewBox="0 0 188 188" fill="none" xmlns="http://www.w3.org/2000/svg">
<path d="M187.553 89.1029C187.604 95.0509 186.658 100.43 186.08 105.84C185.682 109.55 185.438 113.288 184.778 116.951C183.404 124.583 181.481 132.09 179.058 139.468C177.265 144.93 173.93 149.488 170.808 154.21C166.59 160.587 160.798 165.263 154.804 169.782C152.906 171.212 151.049 172.699 149.228 174.223C146.016 176.914 142.162 178.363 138.318 179.762C130.948 182.446 123.44 184.724 115.694 186.05C111.416 186.782 107.085 187.454 102.758 187.607C99.2516 187.731 95.7076 187.114 92.1956 186.696C82.9009 185.59 73.7517 183.64 64.621 181.646C60.6837 180.786 56.8783 179.518 53.245 177.575C46.785 174.124 40.7329 170.071 35.0356 165.558C31.2902 162.59 27.7956 159.267 24.1116 156.19C22.949 155.219 21.7196 154.327 20.5116 153.41C14.829 149.091 10.5503 143.74 8.10759 136.968C7.11159 134.207 6.37562 131.386 5.61162 128.562C4.86229 125.79 4.09026 123.004 3.0516 120.332C1.2636 115.735 1.03164 110.908 0.527638 106.103C-0.143028 99.7309 0.970287 93.4749 1.64229 87.1909C2.16495 82.3282 2.78495 77.4762 3.24229 72.6082C3.73562 67.3575 5.26096 62.3843 6.84496 57.3883C10.0703 47.2149 16.2996 38.8482 22.6676 30.5402C24.7276 27.8549 26.6276 25.0562 28.8423 22.4802C32.3823 18.3629 36.6889 15.1896 41.2089 12.299C47.3076 8.39762 53.5516 4.74557 60.4582 2.38957C62.9582 1.53491 65.4917 0.928203 68.1597 0.852203C71.697 0.75087 75.2303 0.409537 78.7663 0.380203C84.753 0.332203 90.6623 1.76296 96.6676 1.83229C104.49 1.92162 112.06 2.31763 119.777 3.50963C126.066 4.48163 132.017 6.68831 137.862 9.08698C142.588 11.0256 147.349 12.8495 152.114 14.6749C155.265 15.8815 158.546 17.027 161.417 18.959C162.1 19.4177 162.772 19.8843 163.254 20.5163C164.988 22.7776 167.598 24.0563 169.396 26.315C172.337 30.011 174.273 34.2109 176.274 38.3949C179.13 44.3642 180.402 50.8336 181.973 57.1896C183.617 63.8389 185.05 70.5456 186.39 77.2629C187.198 81.3122 187.636 85.4322 187.553 89.1029Z" fill="#FFD561"/>
<path d="M115.416 61.1558C114.412 65.0051 113.535 68.9078 111.102 72.2011C107.844 75.8824 105.049 79.9398 100.971 82.9184C94.7085 87.4971 84.8499 87.8357 78.2472 81.7744C77.3606 80.9597 76.5406 80.0745 75.6912 79.2212C73.1939 76.1278 72.1526 72.4705 71.7139 68.6225C71.5219 66.9265 71.3379 65.2225 71.3472 63.4972C71.3552 62.0892 72.0205 61.5852 73.2165 61.5145C76.4338 61.3225 79.6525 61.0705 82.8725 61.0385C87.2125 60.9958 91.5124 60.4092 95.8351 60.2598C102.024 60.0452 108.21 59.3985 114.416 59.9385C115.296 60.0158 115.632 60.3358 115.416 61.1558ZM119.602 58.8398C115.83 58.4691 112.042 58.1838 108.256 58.2624C101.051 58.4118 93.8565 58.7558 86.6605 59.2998C80.2365 59.7851 73.7672 60.1279 67.3045 59.7199C66.9539 59.6972 66.5885 59.6757 66.2485 59.7411C65.7845 59.8317 65.4112 60.0345 65.4325 60.6372C65.5272 63.0998 65.4245 65.5625 65.6671 68.0278C66.3538 74.9998 69.3765 80.4998 75.4565 84.2118C79.5911 86.7371 84.1058 87.7211 88.6738 87.7558C90.6485 87.9478 92.4098 87.7078 94.1671 87.7011C101.164 87.6784 106.703 84.6718 111.275 79.6158C112.969 77.7438 114.523 75.7479 116.165 73.8305C119.311 70.1545 120.395 65.6212 121.402 61.0812C121.759 59.4705 121.255 59.0024 119.602 58.8398Z" fill="#292929"/>
<path d="M75.6914 79.2213C76.5901 79.0626 76.7941 78.2253 77.1581 77.6106C78.0887 76.0373 79.4634 75.1467 81.1647 74.6093C85.1727 73.3413 89.09 73.1439 92.7714 75.5613C93.646 76.1373 94.0247 75.7413 94.3861 75.0427C95.9434 72.04 98.25 69.7799 101.562 69.0466C104.143 68.4746 106.87 68.2893 109.058 70.4826C109.681 71.1066 110.131 71.9786 111.102 72.2012C107.845 75.8826 105.049 79.9399 100.971 82.9186C94.7087 87.4972 84.8501 87.8359 78.2474 81.7746C77.3607 80.9599 76.5407 80.0746 75.6914 79.2213Z" fill="#D6674C"/>
<path d="M131.607 33.151C129.349 31.6936 126.899 30.919 124.314 30.395C120.897 29.7003 117.471 29.051 113.981 29.731C111.19 30.275 108.639 31.5563 106.11 32.7723C104.381 33.6043 103.155 35.1737 103.049 37.187C102.934 39.3377 102.453 41.5203 102.995 43.6576C104.174 48.2923 105.595 52.7963 111.093 54.0777C112.511 54.4083 113.959 54.6097 115.578 54.5323C116.65 54.6723 117.843 54.3776 119.045 54.2683C122.466 53.9563 125.65 52.527 128.035 50.351C131.331 47.3416 133.371 43.3043 134.158 38.7736C134.586 36.299 133.743 34.5296 131.607 33.151Z" fill="white"/>
<path d="M84.1899 32.4256C83.8126 31.9789 83.2739 31.7482 82.7566 31.6229C77.2793 30.3015 71.8433 28.7189 66.1006 29.0482C64.3926 29.1456 62.798 29.8095 61.4153 30.7962C61.11 31.0135 57.7753 34.1281 58.1233 34.3028C55.4846 38.5975 54.7153 42.9722 57.4207 47.5682C58.8153 49.9402 60.1779 52.4322 62.9673 53.2882C66.8206 54.4722 70.8607 54.6415 74.7754 53.7829C81.4954 52.3082 85.3272 47.5588 87.3686 41.3348C88.7406 37.1562 87.4579 34.1349 84.1899 32.4256Z" fill="white"/>
<path d="M59.2885 33.343C59.5685 33.2177 59.8125 33.055 59.9258 32.7497C62.7232 31.5883 65.603 31.7576 68.5364 32.0523C69.9804 32.1963 71.0071 32.7417 71.8391 33.8537C72.1871 34.319 72.5911 34.7657 73.0684 33.9377C74.2257 31.9283 76.0577 31.379 78.2297 31.567C79.3324 31.663 80.4431 31.6963 81.5391 31.8456C82.6604 32.0003 83.5871 32.5109 83.5631 33.8136C83.5111 36.7149 83.9578 39.675 82.6444 42.443C80.5404 45.079 78.3298 47.6163 75.8925 49.9563C75.2698 50.5536 74.6551 50.8483 73.7724 50.8789C71.0378 50.9749 68.6018 50.1803 66.4498 48.555C64.0804 46.7643 61.7098 44.9749 60.1831 42.3069C59.3831 40.9096 59.2378 39.3417 58.7205 37.8763C58.7885 36.3497 58.3898 34.7657 59.2885 33.343Z" fill="#D6674C"/>
<path d="M129.965 39.0774C130.083 43.8307 127.549 47.6174 124.583 51.212C124.217 51.656 123.703 51.888 123.111 51.8734C121.007 51.824 119.105 51.6494 117.019 50.6201C112.222 48.2508 109.842 44.1401 107.715 39.7161C106.829 37.8707 107.346 35.816 107.785 33.9294C108.071 32.6974 109.267 32.0014 110.538 31.8334C112.645 31.5521 114.766 31.604 116.861 31.996C118.211 32.2494 118.559 33.4907 119.057 34.5107C119.43 35.2787 119.713 35.5347 120.407 34.808C121.851 33.296 123.779 33.6347 125.554 33.684C129.701 33.7987 130.098 34.2854 129.966 38.4321C129.961 38.5828 129.965 38.7347 129.965 39.0774Z" fill="#D6674C"/>
</svg>
