<svg width="188" height="189" viewBox="0 0 188 189" fill="none" xmlns="http://www.w3.org/2000/svg">
<path d="M103.329 188.222C96.505 187.884 89.6517 188.203 82.849 187.359C77.9944 186.756 73.273 185.607 68.685 183.882C63.2783 181.848 57.861 179.842 52.4516 177.824C48.1863 176.232 44.1743 174.084 40.1677 171.939C36.913 170.196 33.7263 168.312 30.5583 166.408C25.4677 163.348 21.7837 158.747 17.805 154.43C12.3397 148.495 9.41171 141.16 6.22104 133.947C4.86904 130.894 3.16501 127.987 2.45568 124.654C1.39968 119.694 0.914382 114.654 0.629048 109.614C0.429048 106.054 0.317038 102.494 0.318371 98.9336C0.323704 87.5069 2.64638 76.5603 7.36505 66.187C11.2504 57.6403 14.6237 48.8403 19.397 40.7203C21.249 37.5736 23.9357 35.1736 26.313 32.5203C30.0317 28.3603 34.237 24.6536 38.6503 21.3203C42.1157 18.6936 45.6917 16.1869 49.2117 13.6135C50.8917 12.4002 52.4943 11.0536 54.0743 9.69362C58.2836 6.08029 63.249 3.97358 68.4824 2.66692C72.097 1.76025 75.9036 1.88021 79.641 1.74687C83.3743 1.60021 87.1023 1.32026 90.829 1.06693C93.4023 0.880258 95.9624 1.00031 98.4877 1.45364C102.017 2.08031 105.605 2.44025 109.049 3.46692C111.597 4.22692 114.074 5.2402 116.577 6.14687C122.83 8.4402 129.106 10.6803 135.328 13.0669C141.541 15.4536 147.028 19.1336 152.416 23.0269C157.184 26.4803 160.957 30.8935 164.704 35.3469C168.741 40.1335 172.922 44.827 176.416 50.0536C179.766 55.0803 181.785 60.7469 183.578 66.4936C185.173 71.6136 186.466 76.7869 187.27 82.1069C187.897 86.2402 187.413 90.2536 186.754 94.3336C185.646 101.214 183.433 107.72 181.058 114.2C180.094 116.827 179.258 119.44 179.004 122.307C178.638 126.427 176.533 130.094 175.349 134.014C172.073 144.866 165.794 153.942 159.084 162.782C157.885 164.36 157.01 166.186 155.876 167.818C153.47 171.278 151.116 174.788 148.136 177.784C147.69 178.234 147.126 178.622 146.546 178.86C144.009 179.904 142.261 182.119 139.756 183.316C136.17 185.031 132.389 185.844 128.618 186.74C121.265 188.487 113.753 188.16 106.278 188.22C105.296 188.227 104.312 188.222 103.329 188.222Z" fill="#FFD561"/>
<path d="M74.6848 63.3735C72.2022 63.1735 69.5168 62.9468 66.8288 62.7468C65.3608 62.6402 64.6049 61.6269 64.2102 60.4669C63.1156 57.2669 63.3049 53.9335 63.9089 50.6802C64.3169 48.4802 66.4956 46.8935 68.7262 46.9735C73.0662 47.1335 77.4316 47.1202 81.6876 48.2402C83.1316 48.6135 84.1022 49.7202 85.2995 50.4669C85.4702 50.5736 85.5835 50.8802 85.6049 51.1069C86.0822 55.9469 83.4169 60.8936 79.1196 62.8936C77.7809 63.5203 76.3048 63.1869 74.6848 63.3735Z" fill="white"/>
<path d="M120.129 38.2668C122.952 35.0802 126.017 34.8936 128.974 37.5202C132.88 40.9736 136.626 44.5868 139.833 48.7335C140.806 50.0002 142.141 51.0135 143.414 52.0002C144.152 52.5735 143.985 52.8668 143.393 53.3068C142.276 54.1335 141.03 54.7202 139.72 55.1335C138.662 55.4802 138.152 54.5334 137.485 54.0134C134.773 51.9201 132.842 49.0802 130.629 46.5202C128.421 43.9736 125.63 42.0935 123.278 39.7068C122.473 38.8935 121.332 38.6002 120.129 38.2668Z" fill="#292929"/>
<path d="M111.85 89.0133C111.838 90.88 111.783 92.7466 111.834 94.6133C111.858 95.44 111.372 95.5733 110.794 95.7733C108.313 96.64 105.749 96.5067 103.205 96.3733C99.2049 96.16 95.2021 95.9067 91.2181 95.5067C86.2155 95 81.1288 95.0266 76.3141 93.2133C75.2128 92.7866 74.4488 91.9467 73.4728 91.3867C73.1648 91.2134 73.1329 90.92 73.1929 90.6133C73.8916 87.2133 74.3862 83.7334 76.4235 80.7601C78.8195 79.7467 81.3155 79.3467 83.9115 79.4534C85.3102 79.5201 86.4715 80.2 87.5635 80.9334C89.9341 82.52 92.2168 84.2267 94.0861 86.4267C95.3848 87.96 95.5194 87.9734 97.3368 87.1601C99.5941 86.1601 101.926 85.4401 104.363 84.9867C105.658 84.7467 106.81 84.88 107.894 85.5733C109.37 86.5333 111.009 87.3066 111.85 89.0133Z" fill="#D6674C"/>
<path d="M75.5834 49.2268C79.6847 49.2002 79.77 49.3068 79.7514 53.4268C79.742 55.7868 78.7114 57.9068 78.2354 60.1602C78.1407 60.6135 77.7741 60.8002 77.3821 60.8535C75.1421 61.1602 72.894 61.1868 70.6674 60.8001C69.918 60.6801 69.4114 60.1868 69.418 59.2535C69.438 56.8268 69.9727 54.4668 70.3607 52.1068C70.6807 50.1468 72.6354 49.2402 75.5834 49.2268Z" fill="#292929"/>
<path d="M123.436 52.8C123.45 55.32 123.119 57.8 122.886 60.3066C122.763 61.6133 122.004 62.28 120.79 62.64C118.338 63.3733 115.844 63.3467 113.343 63.16C111.978 63.0534 110.628 62.8 109.264 62.6667C108.632 62.6133 108.038 62.4934 107.82 61.8534C106.563 58.1867 105.099 54.5599 107.023 50.6133C107.916 48.7733 108.956 47.6933 111.17 47.4799C113.892 47.2133 116.563 47.4534 119.25 47.5867C122.626 47.7467 123.431 48.8 123.436 52.8Z" fill="white"/>
<path d="M72.6675 35.6932C71.6449 35.6266 71.0569 36.1465 70.4169 36.5732C66.5275 39.1465 62.5689 41.6133 58.4369 43.7866C56.3503 44.8933 54.4436 46.2932 52.5489 47.6932C52.2236 47.9332 51.9609 48.2799 51.5369 48.1065C50.0236 47.4799 48.6596 46.6132 47.5942 45.3599C47.0756 44.7466 47.6715 44.3732 48.1022 44.0798C49.7715 42.9598 51.3902 41.7333 53.1569 40.7866C57.7502 38.3199 62.1995 35.6266 66.4835 32.6666C67.2195 32.1599 67.8782 32.0532 68.6622 32.4666C70.1409 33.2399 71.5235 34.1332 72.6675 35.6932Z" fill="#292929"/>
<path d="M111.849 89.0134C111.837 90.8801 111.781 92.7467 111.833 94.6134C111.857 95.4401 111.371 95.5734 110.793 95.7734C108.312 96.6401 105.748 96.5067 103.204 96.3734C99.204 96.1601 95.2013 95.9068 91.2173 95.5068C86.2146 95.0001 81.1279 95.0267 76.3133 93.2134C75.2119 92.7867 74.448 91.9468 73.4733 91.3868C73.164 91.2135 73.132 90.9201 73.192 90.6134C73.8907 87.2134 74.3853 83.7335 76.4226 80.7601C79.6413 76.0135 83.9626 72.6134 89.3186 70.6668C93.0533 69.3068 96.6439 69.9334 100.175 71.8134C103.724 73.7067 106.328 76.5734 108.609 79.6801C110.583 82.3734 111.861 85.5201 111.849 89.0134ZM116.32 84.3334C115.227 81.5601 113.448 79.3201 111.505 77.1467C108.148 73.4001 104.187 70.6268 99.2307 69.4668C97.9387 69.1601 96.6386 68.8668 95.3239 68.6935C91.8813 68.2535 88.4414 67.4268 84.9707 68.6001C81.5134 69.7468 78.4733 71.6401 75.6547 73.8935C70.5027 78.0268 68.1894 83.6535 67.332 90.0268C67.2627 90.5468 67.4227 90.9201 67.844 91.1467C69.9733 92.3467 72.0066 93.7201 74.4293 94.3334C78.864 95.4401 83.296 96.4801 87.884 96.8268C93.4066 97.2401 98.908 97.9468 104.444 98.1601C107.807 98.2801 111.187 98.6801 114.537 97.9067C117.429 97.2401 117.435 97.2668 117.46 94.3734C117.465 93.8268 117.461 93.2934 117.461 92.8668C117.761 89.8534 117.401 87.0668 116.32 84.3334Z" fill="#292929"/>
<path d="M109.166 55.0936C109.166 54.0136 109.27 52.9203 109.139 51.8537C108.967 50.427 109.672 49.7336 110.882 49.4003C112.854 48.8669 114.866 48.947 116.871 49.1603C117.487 49.227 117.844 49.5469 118.054 50.2403C118.975 53.3603 118.926 56.5469 118.978 59.7336C118.99 60.4803 118.626 60.8136 117.944 60.8802C115.642 61.0936 113.342 61.0269 111.047 60.8003C109.771 60.6803 109.14 60.0136 109.251 58.6403C109.347 57.4669 109.271 56.2803 109.271 55.0936C109.236 55.0936 109.2 55.0936 109.166 55.0936Z" fill="#292929"/>
</svg>
